<svg width="58" height="58" viewBox="0 0 58 58" fill="none" xmlns="http://www.w3.org/2000/svg">
<path d="M29 0C13.0082 0 0 13.0082 0 29C0 44.9918 13.0082 58 29 58C44.9918 58 58 44.9918 58 29C58 13.0082 44.9918 0 29 0ZM48.1776 13.3707C51.6284 17.5882 53.7197 22.956 53.7685 28.8048C52.9529 28.6305 44.7618 26.9714 36.5219 28.0101C36.3476 27.5849 36.1733 27.1596 35.9921 26.7344C35.4762 25.5284 34.9255 24.3224 34.3469 23.1442C43.5 19.4007 47.6548 14.0817 48.1776 13.3707ZM29 4.26635C35.295 4.26635 41.0462 6.62957 45.4171 10.5055C44.9709 11.1399 41.2413 16.1522 32.4368 19.4565C28.3796 11.9974 23.8832 5.87668 23.193 4.95649C25.0962 4.4964 27.0411 4.26635 29 4.26635ZM18.4666 6.6226C19.1219 7.5149 23.5486 13.6565 27.6476 20.9483C16.0615 24.0226 5.85577 23.9808 4.74736 23.9668C6.35769 16.2776 11.5373 9.89207 18.4666 6.6226ZM4.23149 29.0349C4.23149 28.7839 4.23846 28.526 4.24543 28.275C5.32596 28.2959 17.3303 28.4493 29.7041 24.7476C30.4151 26.1349 31.0914 27.543 31.7118 28.9512C31.3841 29.0418 31.0565 29.1394 30.7358 29.244C17.9577 33.3849 11.1608 44.6433 10.5962 45.5983C6.64351 41.2065 4.23149 35.3995 4.23149 29.0349ZM29 53.8034C23.2697 53.8034 17.9925 51.8514 13.7959 48.575C14.2421 47.6618 19.2543 37.9789 33.2245 33.106L33.3849 33.0502C36.8635 42.0849 38.2995 49.6625 38.669 51.8375C35.6132 53.1436 32.3232 53.8125 29 53.8034ZM42.8377 49.5719C42.5868 48.0661 41.2692 40.8161 38.0276 31.9139C45.7935 30.6731 52.6113 32.7087 53.4548 32.9736C52.3534 39.8611 48.4007 45.8144 42.8377 49.5719Z" fill="#E2C139"/>
</svg>
