<svg width="58" height="58" viewBox="0 0 58 58" fill="none" xmlns="http://www.w3.org/2000/svg">
<path d="M53.3382 0H4.66175C2.088 0 0 2.088 0 4.66175V53.3382C0 55.912 2.088 58 4.66175 58H53.3382C55.912 58 58 55.912 58 53.3382V4.66175C58 2.088 55.912 0 53.3382 0ZM53.3382 53.36C20.8727 53.3527 4.64 53.3455 4.64 53.3382C4.64725 20.8727 4.6545 4.64 4.66175 4.64C37.1273 4.64725 53.36 4.6545 53.36 4.66175C53.3527 37.1273 53.3455 53.36 53.3382 53.36ZM8.5985 21.7428H17.2042V49.4232H8.5985V21.7428ZM12.905 17.9583C15.6528 17.9583 17.893 15.7252 17.893 12.9702C17.893 12.3152 17.764 11.6666 17.5133 11.0614C17.2626 10.4563 16.8952 9.90638 16.432 9.4432C15.9689 8.98002 15.419 8.61261 14.8138 8.36194C14.2087 8.11127 13.56 7.98225 12.905 7.98225C12.25 7.98225 11.6013 8.11127 10.9962 8.36194C10.391 8.61261 9.84113 8.98002 9.37795 9.4432C8.91477 9.90638 8.54736 10.4563 8.29669 11.0614C8.04602 11.6666 7.917 12.3152 7.917 12.9702C7.90975 15.7252 10.1427 17.9583 12.905 17.9583ZM31.1967 35.728C31.1967 32.1175 31.8855 28.623 36.3587 28.623C40.7668 28.623 40.832 32.7482 40.832 35.96V49.4232H49.4305V34.2417C49.4305 26.7887 47.821 21.054 39.1138 21.054C34.9305 21.054 32.1247 23.3522 30.972 25.5272H30.856V21.7428H22.5982V49.4232H31.1967V35.728Z" fill="#E2C139"/>
</svg>
