<svg width="44" height="42" viewBox="0 0 44 42" fill="none" xmlns="http://www.w3.org/2000/svg">
<path d="M42.918 19.582L20.7812 0.36914C20.6113 0.222656 20.3945 0.140625 20.166 0.140625H14.9805C14.5469 0.140625 14.3477 0.679688 14.6758 0.960938L35.1953 18.7734H0.90625C0.648438 18.7734 0.4375 18.9844 0.4375 19.2422V22.7578C0.4375 23.0156 0.648438 23.2266 0.90625 23.2266H35.1895L14.6699 41.0391C14.3418 41.3262 14.541 41.8594 14.9746 41.8594H20.3359C20.4473 41.8594 20.5586 41.8184 20.6406 41.7422L42.918 22.418C43.1208 22.2416 43.2835 22.0237 43.3949 21.7791C43.5064 21.5345 43.564 21.2688 43.564 21C43.564 20.7312 43.5064 20.4655 43.3949 20.2209C43.2835 19.9763 43.1208 19.7584 42.918 19.582Z" fill="#E2C139"/>
</svg>
