<svg width="34" height="34" viewBox="0 0 34 34" fill="none" xmlns="http://www.w3.org/2000/svg">
<path d="M27.2081 3.28L27.209 3.28035C28.0658 3.61339 28.692 4.02125 29.3364 4.6657C29.9809 5.31016 30.3865 5.93421 30.7194 6.79248C30.9731 7.44053 31.2606 8.39531 31.3375 10.1068C31.3375 10.107 31.3375 10.1072 31.3375 10.1075L30.838 10.1299C30.9209 11.9213 30.9379 12.4589 30.9379 16.9958L27.2081 3.28ZM27.2081 3.28C26.5601 3.02952 25.606 2.73941 23.8928 2.66252C22.0897 2.5791 21.5423 2.56425 17.0021 2.56425H15.9764V2.55966L15.476 2.56C12.3028 2.56213 11.6871 2.58345 10.109 2.65615L10.1089 2.65616C8.397 2.73517 7.44459 3.02283 6.79506 3.27616C5.93656 3.60907 5.3124 4.01474 4.66782 4.65932C4.02341 5.30374 3.61556 5.92992 3.28253 6.78658C3.02914 7.43625 2.74154 8.39078 2.66253 10.1026L2.66251 10.1031M27.2081 3.28L2.66251 10.1031M2.66251 10.1031C2.58124 11.9059 2.56425 12.4504 2.56425 16.9915C2.56425 21.5346 2.58124 22.0813 2.6625 23.884L2.66251 10.1031ZM10.0167 0.601479C11.8174 0.521259 12.3896 0.500013 16.9958 0.5L33.898 9.98962C33.9787 11.8044 34 12.3824 34 17C34 21.6176 33.9787 22.1956 33.898 24.0082L33.3985 23.9848C33.3985 23.9848 33.3985 23.9848 33.3985 23.9849C33.3158 25.7478 33.0382 26.9284 32.6416 27.9536C32.2291 29.0118 31.6855 29.8996 30.7926 30.7926L30.7891 30.7961C29.9918 31.6091 29.0266 32.2383 27.9609 32.6396L27.9609 32.6395L27.9559 32.6415C26.9317 33.0399 25.7473 33.3157 23.9854 33.3985C22.182 33.4788 21.6142 33.5 17 33.5C12.3858 33.5 11.8159 33.4788 10.0125 33.3985C8.24945 33.3178 7.07115 33.0402 6.04383 32.6414L6.04367 32.6413C4.98642 32.2313 4.09884 31.686 3.20783 30.793L3.20743 30.7926C2.31451 29.8997 1.77093 29.0119 1.35849 27.9537C0.960012 26.9294 0.684335 25.7492 0.601478 23.9854C0.521234 22.1841 0.5 21.6142 0.5 17.0021C0.5 12.3856 0.521236 11.8158 0.601491 10.01C0.682225 8.25115 0.959868 7.06898 1.35836 6.04658L1.35839 6.04659L1.36039 6.04129C1.76214 4.97501 2.39134 4.00905 3.20425 3.21058L3.20431 3.21064L3.21078 3.20405C4.0087 2.39078 4.97463 1.7616 6.04103 1.36049L6.04104 1.36052L6.04627 1.35849C7.07059 0.960026 8.25076 0.684338 10.0167 0.601479ZM24.9869 9.0152L24.6334 9.36875L24.9869 9.01519C24.8439 8.87219 24.7305 8.70242 24.6531 8.51558C24.5757 8.32874 24.5359 8.12849 24.5359 7.92625C24.5359 7.72401 24.5757 7.52376 24.6531 7.33692C24.7305 7.15008 24.8439 6.98031 24.9869 6.83731C25.1299 6.6943 25.2997 6.58087 25.4865 6.50348C25.6734 6.42608 25.8736 6.38625 26.0759 6.38625C26.4843 6.38625 26.876 6.5485 27.1648 6.83731C27.4536 7.12611 27.6159 7.51782 27.6159 7.92625C27.6159 8.33468 27.4536 8.72639 27.1648 9.01519C26.876 9.304 26.4843 9.46625 26.0759 9.46625C25.8736 9.46625 25.6734 9.42642 25.4865 9.34902C25.2997 9.27163 25.1299 9.1582 24.9869 9.0152ZM13.805 9.3597C14.8185 8.95371 15.9027 8.75341 16.9943 8.77044C19.155 8.80415 21.2157 9.68613 22.7318 11.226C24.2478 12.7659 25.0975 14.8401 25.0975 17.0011C25.0975 19.162 24.2478 21.2362 22.7318 22.7761C21.2157 24.316 19.155 25.198 16.9943 25.2317C15.9027 25.2487 14.8185 25.0484 13.805 24.6424C12.7915 24.2364 11.8689 23.6329 11.0909 22.8669C10.3128 22.101 9.69497 21.1879 9.27323 20.1808C8.85148 19.1738 8.63429 18.0929 8.63429 17.0011C8.63429 15.9093 8.85148 14.8284 9.27323 13.8213C9.69497 12.8143 10.3128 11.9012 11.0909 11.1352C11.8689 10.3692 12.7915 9.76568 13.805 9.3597ZM21.3631 12.639C20.2065 11.4824 18.6378 10.8326 17.0021 10.8326C15.3664 10.8326 13.7977 11.4824 12.6411 12.639C11.4845 13.7956 10.8348 15.3643 10.8348 17C10.8348 18.6357 11.4845 20.2044 12.6411 21.361C13.7977 22.5176 15.3664 23.1674 17.0021 23.1674C18.6378 23.1674 20.2065 22.5176 21.3631 21.361C22.5197 20.2044 23.1695 18.6357 23.1695 17C23.1695 15.3643 22.5197 13.7956 21.3631 12.639Z" stroke="#06505F"/>
</svg>
