<svg width="33" height="33" viewBox="0 0 33 33" fill="none" xmlns="http://www.w3.org/2000/svg">
<path d="M2.1293 30.2249V30.225C2.23832 30.5367 2.54508 30.7179 2.57261 30.7218C2.58207 30.7228 2.59631 30.7239 2.60119 30.7243C2.60878 30.7247 2.61497 30.7249 2.61666 30.7249H2.6167L2.62889 30.7252L2.65268 30.7254L2.73531 30.7258L3.05959 30.7266C3.34728 30.7271 3.77864 30.7276 4.35359 30.7281C5.50352 30.7291 7.22834 30.7302 9.528 30.7312C14.1273 30.7332 21.0263 30.7353 30.2249 30.7373H30.225C30.5367 30.6283 30.7178 30.3216 30.7218 30.294C30.7228 30.2846 30.7239 30.2703 30.7242 30.2655C30.7245 30.2607 30.7247 30.2565 30.7248 30.2536C30.7248 30.2518 30.7249 30.2506 30.7249 30.2499L30.7251 30.2378L30.7254 30.214L30.7257 30.1313L30.7265 29.8071C30.727 29.5194 30.7275 29.088 30.7281 28.5131C30.7291 27.3631 30.7301 25.6383 30.7311 23.3386C30.7332 18.7393 30.7353 11.8403 30.7373 2.64178V2.64167C30.6283 2.32999 30.3215 2.1488 30.294 2.14488C30.2845 2.14389 30.2703 2.14273 30.2654 2.14243C30.2625 2.14227 30.2598 2.14214 30.2574 2.14204C30.2537 2.14188 30.2509 2.1418 30.2499 2.14177L30.2377 2.14152L30.2139 2.14129L30.1313 2.1409L29.807 2.14013C29.5193 2.13961 29.088 2.1391 28.513 2.13859C27.3631 2.13756 25.6383 2.13653 23.3386 2.1355C18.7393 2.13345 11.8403 2.1314 2.64174 2.12934H2.64163C2.32996 2.23836 2.14876 2.54512 2.14484 2.57265C2.14385 2.58211 2.1427 2.59635 2.1424 2.60122C2.14196 2.60876 2.14179 2.61492 2.14174 2.61666L2.14174 2.61674L2.14149 2.62893L2.14126 2.65272L2.14086 2.73535L2.14009 3.05963C2.13957 3.34732 2.13906 3.77868 2.13855 4.35362C2.13752 5.50356 2.13649 7.22838 2.13547 9.52804C2.13341 14.1274 2.13136 21.0263 2.1293 30.2249ZM4.98627 7.35113V7.34982C4.98627 7.04429 5.04645 6.74176 5.16337 6.45949C5.28029 6.17722 5.45166 5.92075 5.6677 5.70471C5.88373 5.48867 6.14021 5.3173 6.42248 5.20038C6.70475 5.08346 7.00728 5.02328 7.3128 5.02328C7.61833 5.02328 7.92086 5.08346 8.20313 5.20038C8.4854 5.3173 8.74187 5.48867 8.95791 5.70471C9.17395 5.92075 9.34532 6.17722 9.46224 6.45949C9.57916 6.74176 9.63934 7.04429 9.63934 7.34982C9.63934 8.63437 8.59419 9.67635 7.3128 9.67635C6.02294 9.67635 4.98289 8.6344 4.98627 7.35113ZM27.5106 19.4037V27.5065H23.6381V20.3773C23.6381 19.4891 23.6353 18.3487 23.2723 17.432C23.0851 16.9592 22.7936 16.5205 22.3393 16.2034C21.8839 15.8856 21.3076 15.7197 20.6033 15.7197C19.9045 15.7197 19.3173 15.8564 18.8346 16.1237C18.3491 16.3925 17.9991 16.777 17.7524 17.2239C17.2719 18.0944 17.1781 19.2135 17.1781 20.2459V27.5065H13.3056V12.8209H16.985V14.4655V14.9655H17.485H17.5508H17.8517L17.9926 14.6996C18.5636 13.6222 19.9885 12.4306 22.1644 12.4306C24.5081 12.4306 25.7847 13.1916 26.5148 14.35C27.2782 15.5612 27.5106 17.303 27.5106 19.4037ZM2.64163 0.500008H30.225C31.4073 0.500008 32.3666 1.45935 32.3666 2.64167V30.225C32.3666 31.4073 31.4073 32.3667 30.225 32.3667H2.64163C1.45931 32.3667 0.499969 31.4073 0.499969 30.225V2.64167C0.499969 1.45935 1.45931 0.500008 2.64163 0.500008ZM5.37245 12.8209H9.24904V27.5065H5.37245V12.8209Z" stroke="#06505F"/>
</svg>
